# xmcd
#
# Track frame offsets:
#	150
#	69162
#	77835
#	109148
#	138943
#	162754
#
# Disc length: 2338 seconds
#
# Revision: 1
# Processed by: cddbd v1.5.2PL0 Copyright (c) Steve Scherf et al.
# Submitted via: audiograbber 1.83.01
#
DISCID=43092006
DTITLE=Grateful Dead - 68-12-21 Shrine Auditorium, Los Angeles CA
DYEAR=1900
DGENRE=
TTITLE0=Turn On Your Lovelight
TTITLE1=Cryptical Envelopment
TTITLE2=The Other One
TTITLE3=Cryptical Envelopment Reprise
TTITLE4=It Hurts Me Too
TTITLE5=Tuning-banter
EXTD=
EXTT0=
EXTT1=
EXTT2=
EXTT3=
EXTT4=
EXTT5=
PLAYORDER=
